<svg width="50" height="50" viewBox="0 0 50 50" fill="none" xmlns="http://www.w3.org/2000/svg">
<g id="fluent:alert-on-16-regular">
<path id="Vector" d="M1.825 6.9469C2.05421 6.60175 2.41111 6.36177 2.81722 6.27973C3.22334 6.19768 3.64541 6.28029 3.99062 6.5094L8.67812 9.63752C9.0097 9.87262 9.23661 10.2277 9.31069 10.6273C9.38477 11.027 9.3002 11.4398 9.07492 11.7781C8.84964 12.1164 8.50139 12.3537 8.10407 12.4394C7.70676 12.5252 7.29166 12.4528 6.94688 12.2375L2.25937 9.11252C1.91474 8.88282 1.6754 8.5257 1.59394 8.11962C1.51249 7.71354 1.5956 7.29173 1.825 6.9469ZM25 6.25002C21.2704 6.25002 17.6935 7.7316 15.0563 10.3688C12.4191 13.0061 10.9375 16.5829 10.9375 20.3125V27.8156L7.925 35.3563C7.82999 35.5933 7.79454 35.8501 7.82176 36.104C7.84898 36.358 7.93803 36.6014 8.08112 36.8129C8.22421 37.0245 8.41698 37.1977 8.64254 37.3175C8.86811 37.4373 9.1196 37.5 9.375 37.5H18.75C18.75 40.9625 21.5375 43.75 25 43.75C28.4625 43.75 31.25 40.9625 31.25 37.5H40.625C40.88 37.4998 41.1311 37.4371 41.3563 37.3175C41.5815 37.1979 41.774 37.0249 41.917 36.8138C42.0601 36.6027 42.1492 36.3597 42.1768 36.1062C42.2043 35.8527 42.1694 35.5963 42.075 35.3594L39.0625 27.8125V20.3125C39.0625 16.5829 37.5809 13.0061 34.9437 10.3688C32.3065 7.7316 28.7296 6.25002 25 6.25002ZM28.125 37.5C28.125 39.2375 26.7375 40.625 25 40.625C23.2625 40.625 21.875 39.2375 21.875 37.5H28.125ZM14.0625 20.3125C14.0625 17.4117 15.2148 14.6297 17.266 12.5785C19.3172 10.5274 22.0992 9.37502 25 9.37502C27.9008 9.37502 30.6828 10.5274 32.734 12.5785C34.7852 14.6297 35.9375 17.4117 35.9375 20.3125V28.1188C35.938 28.3169 35.9762 28.5131 36.05 28.6969L38.3187 34.375H11.6812L13.95 28.6969C14.0238 28.5131 14.062 28.3169 14.0625 28.1188V20.3125ZM46.0094 6.51252C46.3542 6.29726 46.7693 6.22483 47.1666 6.3106C47.5639 6.39637 47.9121 6.63359 48.1374 6.97192C48.3627 7.31024 48.4473 7.72304 48.3732 8.1227C48.2991 8.52236 48.0722 8.87742 47.7406 9.11252L43.0531 12.2375C42.7083 12.4528 42.2932 12.5252 41.8959 12.4394C41.4986 12.3537 41.1504 12.1164 40.9251 11.7781C40.6998 11.4398 40.6152 11.027 40.6893 10.6273C40.7634 10.2277 40.9903 9.87262 41.3219 9.63752L46.0094 6.51252ZM0 20.3125C0 19.8981 0.16462 19.5007 0.457646 19.2077C0.750671 18.9146 1.1481 18.75 1.5625 18.75H6.25C6.6644 18.75 7.06183 18.9146 7.35485 19.2077C7.64788 19.5007 7.8125 19.8981 7.8125 20.3125C7.8125 20.7269 7.64788 21.1243 7.35485 21.4174C7.06183 21.7104 6.6644 21.875 6.25 21.875H1.5625C1.1481 21.875 0.750671 21.7104 0.457646 21.4174C0.16462 21.1243 0 20.7269 0 20.3125ZM48.4375 18.75C48.8519 18.75 49.2493 18.9146 49.5424 19.2077C49.8354 19.5007 50 19.8981 50 20.3125C50 20.7269 49.8354 21.1243 49.5424 21.4174C49.2493 21.7104 48.8519 21.875 48.4375 21.875H43.75C43.3356 21.875 42.9382 21.7104 42.6451 21.4174C42.3521 21.1243 42.1875 20.7269 42.1875 20.3125C42.1875 19.8981 42.3521 19.5007 42.6451 19.2077C42.9382 18.9146 43.3356 18.75 43.75 18.75H48.4375Z" fill="#28348A"/>
</g>
</svg>
