<svg width="24" height="24" viewBox="0 0 24 24" fill="none" xmlns="http://www.w3.org/2000/svg">
<g id="heart">
<path id="Icon" fill-rule="evenodd" clip-rule="evenodd" d="M3.80638 6.20659C4.70651 5.30673 5.92719 4.80122 7.19998 4.80122C8.47276 4.80122 9.69344 5.30673 10.5936 6.20659L12 7.61179L13.4064 6.20659C13.8492 5.74815 14.3788 5.38247 14.9644 5.13091C15.5501 4.87934 16.1799 4.74693 16.8172 4.74139C17.4546 4.73585 18.0866 4.8573 18.6766 5.09865C19.2665 5.34 19.8024 5.69641 20.2531 6.1471C20.7038 6.59778 21.0602 7.13371 21.3015 7.72361C21.5429 8.31352 21.6643 8.94558 21.6588 9.58292C21.6532 10.2203 21.5208 10.8501 21.2693 11.4357C21.0177 12.0214 20.652 12.551 20.1936 12.9938L12 21.1886L3.80638 12.9938C2.90651 12.0937 2.401 10.873 2.401 9.60019C2.401 8.32741 2.90651 7.10673 3.80638 6.20659V6.20659Z" stroke="black" stroke-width="2" stroke-linejoin="round"/>
</g>
</svg>
