<svg width="42" height="42" viewBox="0 0 42 42" fill="none" xmlns="http://www.w3.org/2000/svg">
<g id="icon-park-outline:circular-connection">
<g id="Group">
<path id="Vector" d="M11.8125 34.4487C14.4304 36.5109 17.6674 37.63 21 37.6249C24.4676 37.6249 27.6587 36.4384 30.1875 34.4487M16.625 8.52856C10.5446 10.3967 6.125 16.0571 6.125 22.7499C6.125 24.4343 6.405 26.0531 6.92125 27.5624M25.375 8.52856C31.4554 10.3967 35.875 16.0571 35.875 22.7499C35.875 24.4343 35.595 26.0531 35.0788 27.5624" stroke="#28348A" stroke-width="4"/>
<path id="Vector_2" d="M37.625 31.5C37.625 32.6742 37.163 33.74 36.4105 34.5257C35.7078 35.2599 34.7714 35.7265 33.7621 35.8454C32.7528 35.9644 31.7336 35.7283 30.8795 35.1776C30.0253 34.627 29.3895 33.7962 29.0812 32.8278C28.7729 31.8594 28.8113 30.8139 29.1899 29.8708C29.5684 28.9277 30.2635 28.1458 31.1558 27.6593C32.048 27.1728 33.0818 27.0122 34.0796 27.2049C35.0775 27.3976 35.9771 27.9317 36.624 28.7154C37.271 29.4992 37.6249 30.4837 37.625 31.5ZM13.125 31.5C13.125 32.6742 12.663 33.74 11.9105 34.5257C11.2078 35.2599 10.2714 35.7265 9.26212 35.8454C8.25285 35.9644 7.23364 35.7283 6.37948 35.1776C5.52533 34.627 4.88951 33.7962 4.5812 32.8278C4.27288 31.8594 4.3113 30.8139 4.68986 29.8708C5.06842 28.9277 5.7635 28.1458 6.65577 27.6593C7.54804 27.1728 8.58182 27.0122 9.57965 27.2049C10.5775 27.3976 11.4771 27.9317 12.124 28.7154C12.771 29.4992 13.1249 30.4837 13.125 31.5ZM25.375 7.87495C25.375 9.0492 24.913 10.115 24.1605 10.9007C23.4578 11.6348 22.5214 12.1015 21.5121 12.2204C20.5028 12.3394 19.4836 12.1033 18.6295 11.5526C17.7753 11.002 17.1395 10.1712 16.8312 9.20279C16.5229 8.23442 16.5613 7.18893 16.9399 6.2458C17.3184 5.30268 18.0135 4.52076 18.9058 4.0343C19.798 3.54783 20.8318 3.38716 21.8296 3.57988C22.8275 3.7726 23.7271 4.30668 24.374 5.09042C25.021 5.87417 25.3749 6.85869 25.375 7.87495Z" stroke="#28348A" stroke-width="4" stroke-linecap="round" stroke-linejoin="round"/>
</g>
</g>
</svg>
