<svg width="42" height="42" viewBox="0 0 42 42" fill="none" xmlns="http://www.w3.org/2000/svg">
<path d="M10.5 12.25H19.25C19.7141 12.25 20.1592 12.4344 20.4874 12.7626C20.8156 13.0908 21 13.5359 21 14C21 14.4641 20.8156 14.9092 20.4874 15.2374C20.1592 15.5656 19.7141 15.75 19.25 15.75H10.5C10.0359 15.75 9.59075 15.5656 9.26256 15.2374C8.93437 14.9092 8.75 14.4641 8.75 14C8.75 13.5359 8.93437 13.0908 9.26256 12.7626C9.59075 12.4344 10.0359 12.25 10.5 12.25ZM22.75 26.25H31.5C31.9641 26.25 32.4092 26.4344 32.7374 26.7626C33.0656 27.0908 33.25 27.5359 33.25 28C33.25 28.4641 33.0656 28.9092 32.7374 29.2374C32.4092 29.5656 31.9641 29.75 31.5 29.75H22.75C22.2859 29.75 21.8408 29.5656 21.5126 29.2374C21.1844 28.9092 21 28.4641 21 28C21 27.5359 21.1844 27.0908 21.5126 26.7626C21.8408 26.4344 22.2859 26.25 22.75 26.25ZM10.5 19.25H31.5C31.9641 19.25 32.4092 19.4344 32.7374 19.7626C33.0656 20.0908 33.25 20.5359 33.25 21C33.25 21.4641 33.0656 21.9092 32.7374 22.2374C32.4092 22.5656 31.9641 22.75 31.5 22.75H10.5C10.0359 22.75 9.59075 22.5656 9.26256 22.2374C8.93437 21.9092 8.75 21.4641 8.75 21C8.75 20.5359 8.93437 20.0908 9.26256 19.7626C9.59075 19.4344 10.0359 19.25 10.5 19.25Z" fill="white"/>
</svg>
