<svg width="45" height="50" viewBox="0 0 45 50" fill="none" xmlns="http://www.w3.org/2000/svg">
<g id="material-symbols:sms-outline">
<path id="Vector" d="M15 22.7979C15.5312 22.7979 15.9769 22.6021 16.3369 22.2107C16.6969 21.8193 16.8763 21.3354 16.875 20.7591C16.875 20.1815 16.695 19.6976 16.335 19.3075C15.975 18.9175 15.53 18.7217 15 18.7204C14.4688 18.7204 14.0238 18.9161 13.665 19.3075C13.3063 19.699 13.1263 20.1828 13.125 20.7591C13.125 21.3368 13.305 21.8213 13.665 22.2127C14.025 22.6042 14.47 22.7992 15 22.7979ZM22.5 22.7979C23.0312 22.7979 23.4769 22.6021 23.8369 22.2107C24.1969 21.8193 24.3762 21.3354 24.375 20.7591C24.375 20.1815 24.195 19.6976 23.835 19.3075C23.475 18.9175 23.03 18.7217 22.5 18.7204C21.9688 18.7204 21.5238 18.9161 21.165 19.3075C20.8062 19.699 20.6262 20.1828 20.625 20.7591C20.625 21.3368 20.805 21.8213 21.165 22.2127C21.525 22.6042 21.97 22.7992 22.5 22.7979ZM30 22.7979C30.5312 22.7979 30.9769 22.6021 31.3369 22.2107C31.6969 21.8193 31.8762 21.3354 31.875 20.7591C31.875 20.1815 31.695 19.6976 31.335 19.3075C30.975 18.9175 30.53 18.7217 30 18.7204C29.4688 18.7204 29.0238 18.9161 28.665 19.3075C28.3062 19.699 28.1262 20.1828 28.125 20.7591C28.125 21.3368 28.305 21.8213 28.665 22.2127C29.025 22.6042 29.47 22.7992 30 22.7979ZM3.75 45.224V8.52669C3.75 7.40539 4.1175 6.44582 4.8525 5.648C5.5875 4.85017 6.47 4.45058 7.5 4.44922H37.5C38.5312 4.44922 39.4144 4.84881 40.1494 5.648C40.8844 6.44718 41.2513 7.40675 41.25 8.52669V32.9915C41.25 34.1128 40.8831 35.0731 40.1494 35.8723C39.4156 36.6715 38.5325 37.0704 37.5 37.069H11.25L3.75 45.224ZM9.65625 32.9915H37.5V8.52669H7.5V35.2851L9.65625 32.9915Z" fill="#28348A"/>
</g>
</svg>
